<svg width="242" height="52" viewBox="0 0 242 52" fill="none" xmlns="http://www.w3.org/2000/svg">
<path d="M3.25098 24.2146C3.25098 24.6716 3.60254 25.0671 4.16504 25.0671C4.4375 25.0671 4.68359 24.9177 4.90332 24.7419L5.90527 23.8982V32.072C5.90527 33.3728 6.6875 34.1462 8.03223 34.1462H19.9238C21.2598 34.1462 22.0508 33.3728 22.0508 32.072V23.8542L23.1055 24.7419C23.3164 24.9177 23.5625 25.0671 23.835 25.0671C24.3535 25.0671 24.749 24.7419 24.749 24.2322C24.749 23.9333 24.6348 23.696 24.4062 23.5027L22.0508 21.5164V17.7722C22.0508 17.3767 21.7959 17.1306 21.4004 17.1306H20.1875C19.8008 17.1306 19.5371 17.3767 19.5371 17.7722V19.407L15.2568 15.8123C14.4922 15.1707 13.5254 15.1707 12.7607 15.8123L3.60254 23.5027C3.36523 23.696 3.25098 23.9597 3.25098 24.2146ZM16.5312 26.6404C16.5312 26.2273 16.2676 25.9636 15.8545 25.9636H12.1631C11.75 25.9636 11.4775 26.2273 11.4775 26.6404V32.3972H8.49805C7.95312 32.3972 7.6543 32.0896 7.6543 31.5359V22.4304L13.6221 17.4207C13.8682 17.2097 14.1494 17.2097 14.3955 17.4207L20.293 22.3777V31.5359C20.293 32.0896 19.9941 32.3972 19.4492 32.3972H16.5312V26.6404Z" fill="#1C1C1E"/>
<path d="M32.517 16.5455H37.0682L41.875 28.2727H42.0795L46.8864 16.5455H51.4375V34H47.858V22.6392H47.7131L43.196 33.9148H40.7585L36.2415 22.5966H36.0966V34H32.517V16.5455ZM60.3757 34.2557C59.0291 34.2557 57.87 33.983 56.8984 33.4375C55.9325 32.8864 55.1882 32.108 54.6655 31.1023C54.1428 30.0909 53.8814 28.8949 53.8814 27.5142C53.8814 26.1676 54.1428 24.9858 54.6655 23.9688C55.1882 22.9517 55.924 22.1591 56.8729 21.5909C57.8274 21.0227 58.9467 20.7386 60.2308 20.7386C61.0945 20.7386 61.8984 20.8778 62.6428 21.1562C63.3928 21.429 64.0462 21.8409 64.603 22.392C65.1655 22.9432 65.603 23.6364 65.9155 24.4716C66.228 25.3011 66.3842 26.2727 66.3842 27.3864V28.3835H55.3303V26.1335H62.9666C62.9666 25.6108 62.853 25.1477 62.6257 24.7443C62.3984 24.3409 62.0831 24.0256 61.6797 23.7983C61.282 23.5653 60.8189 23.4489 60.2905 23.4489C59.7393 23.4489 59.2507 23.5767 58.8246 23.8324C58.4041 24.0824 58.0746 24.4205 57.8359 24.8466C57.5973 25.267 57.4751 25.7358 57.4695 26.2528V28.392C57.4695 29.0398 57.5888 29.5994 57.8274 30.071C58.0717 30.5426 58.4155 30.9062 58.8587 31.1619C59.3018 31.4176 59.8274 31.5455 60.4354 31.5455C60.8388 31.5455 61.2081 31.4886 61.5433 31.375C61.8786 31.2614 62.1655 31.0909 62.4041 30.8636C62.6428 30.6364 62.8246 30.358 62.9496 30.0284L66.3075 30.25C66.1371 31.0568 65.7876 31.7614 65.2592 32.3636C64.7365 32.9602 64.0604 33.4261 63.2308 33.7614C62.407 34.0909 61.4553 34.2557 60.3757 34.2557ZM74.7195 34.2557C73.3729 34.2557 72.2138 33.983 71.2422 33.4375C70.2763 32.8864 69.532 32.108 69.0092 31.1023C68.4865 30.0909 68.2251 28.8949 68.2251 27.5142C68.2251 26.1676 68.4865 24.9858 69.0092 23.9688C69.532 22.9517 70.2678 22.1591 71.2166 21.5909C72.1712 21.0227 73.2905 20.7386 74.5746 20.7386C75.4382 20.7386 76.2422 20.8778 76.9865 21.1562C77.7365 21.429 78.3899 21.8409 78.9467 22.392C79.5092 22.9432 79.9467 23.6364 80.2592 24.4716C80.5717 25.3011 80.728 26.2727 80.728 27.3864V28.3835H69.674V26.1335H77.3104C77.3104 25.6108 77.1967 25.1477 76.9695 24.7443C76.7422 24.3409 76.4268 24.0256 76.0234 23.7983C75.6257 23.5653 75.1626 23.4489 74.6342 23.4489C74.0831 23.4489 73.5945 23.5767 73.1683 23.8324C72.7479 24.0824 72.4183 24.4205 72.1797 24.8466C71.9411 25.267 71.8189 25.7358 71.8132 26.2528V28.392C71.8132 29.0398 71.9325 29.5994 72.1712 30.071C72.4155 30.5426 72.7592 30.9062 73.2024 31.1619C73.6456 31.4176 74.1712 31.5455 74.7791 31.5455C75.1825 31.5455 75.5518 31.4886 75.8871 31.375C76.2223 31.2614 76.5092 31.0909 76.7479 30.8636C76.9865 30.6364 77.1683 30.358 77.2933 30.0284L80.6513 30.25C80.4808 31.0568 80.1314 31.7614 79.603 32.3636C79.0803 32.9602 78.4041 33.4261 77.5746 33.7614C76.7507 34.0909 75.799 34.2557 74.7195 34.2557ZM90.0604 20.9091V23.6364H82.1768V20.9091H90.0604ZM83.9666 17.7727H87.5973V29.9773C87.5973 30.3125 87.6484 30.5739 87.7507 30.7614C87.853 30.9432 87.995 31.071 88.1768 31.1449C88.3643 31.2187 88.5803 31.2557 88.8246 31.2557C88.995 31.2557 89.1655 31.2415 89.3359 31.2131C89.5064 31.179 89.6371 31.1534 89.728 31.1364L90.299 33.8381C90.1172 33.8949 89.8615 33.9602 89.532 34.0341C89.2024 34.1136 88.8018 34.1619 88.3303 34.179C87.4553 34.2131 86.6882 34.0966 86.0291 33.8295C85.3757 33.5625 84.8672 33.1477 84.5036 32.5852C84.1399 32.0227 83.9609 31.3125 83.9666 30.4545V17.7727ZM92.4254 34V20.9091H96.0561V34H92.4254ZM94.2493 19.2216C93.7095 19.2216 93.2464 19.0426 92.8601 18.6847C92.4794 18.321 92.2891 17.8864 92.2891 17.3807C92.2891 16.8807 92.4794 16.4517 92.8601 16.0938C93.2464 15.7301 93.7095 15.5483 94.2493 15.5483C94.7891 15.5483 95.2493 15.7301 95.63 16.0938C96.0163 16.4517 96.2095 16.8807 96.2095 17.3807C96.2095 17.8864 96.0163 18.321 95.63 18.6847C95.2493 19.0426 94.7891 19.2216 94.2493 19.2216ZM102.595 26.4318V34H98.9645V20.9091H102.425V23.2188H102.578C102.868 22.4574 103.354 21.8551 104.036 21.4119C104.717 20.9631 105.544 20.7386 106.516 20.7386C107.425 20.7386 108.217 20.9375 108.893 21.3352C109.57 21.733 110.095 22.3011 110.47 23.0398C110.845 23.7727 111.033 24.6477 111.033 25.6648V34H107.402V26.3125C107.408 25.5114 107.203 24.8864 106.788 24.4375C106.374 23.983 105.803 23.7557 105.075 23.7557C104.587 23.7557 104.155 23.8608 103.78 24.071C103.411 24.2812 103.121 24.5881 102.911 24.9915C102.706 25.3892 102.601 25.8693 102.595 26.4318ZM119.792 39.1818C118.616 39.1818 117.607 39.0199 116.766 38.696C115.931 38.3778 115.266 37.9432 114.772 37.392C114.278 36.8409 113.957 36.2216 113.809 35.5341L117.167 35.0824C117.269 35.3438 117.431 35.5881 117.653 35.8153C117.874 36.0426 118.167 36.2244 118.531 36.3608C118.9 36.5028 119.349 36.5739 119.877 36.5739C120.667 36.5739 121.317 36.3807 121.829 35.9943C122.346 35.6136 122.604 34.9744 122.604 34.0767V31.6818H122.451C122.292 32.0455 122.053 32.3892 121.735 32.7131C121.417 33.0369 121.008 33.3011 120.508 33.5057C120.008 33.7102 119.411 33.8125 118.718 33.8125C117.735 33.8125 116.84 33.5852 116.033 33.1307C115.232 32.6705 114.593 31.9687 114.116 31.0256C113.644 30.0767 113.408 28.8778 113.408 27.429C113.408 25.946 113.65 24.7074 114.133 23.7131C114.616 22.7187 115.258 21.9744 116.059 21.4801C116.866 20.9858 117.749 20.7386 118.71 20.7386C119.442 20.7386 120.056 20.8636 120.55 21.1136C121.045 21.358 121.442 21.6648 121.744 22.0341C122.05 22.3977 122.286 22.7557 122.451 23.108H122.587V20.9091H126.192V34.1278C126.192 35.2415 125.92 36.1733 125.374 36.9233C124.829 37.6733 124.073 38.2358 123.107 38.6108C122.147 38.9915 121.042 39.1818 119.792 39.1818ZM119.869 31.0852C120.454 31.0852 120.948 30.9403 121.352 30.6506C121.761 30.3551 122.073 29.9347 122.289 29.3892C122.511 28.8381 122.621 28.179 122.621 27.4119C122.621 26.6449 122.513 25.9801 122.298 25.4176C122.082 24.8494 121.769 24.4091 121.36 24.0966C120.951 23.7841 120.454 23.6278 119.869 23.6278C119.272 23.6278 118.769 23.7898 118.36 24.1136C117.951 24.4318 117.641 24.875 117.431 25.4432C117.221 26.0114 117.116 26.6676 117.116 27.4119C117.116 28.1676 117.221 28.821 117.431 29.3722C117.647 29.9176 117.957 30.3409 118.36 30.642C118.769 30.9375 119.272 31.0852 119.869 31.0852Z" fill="black"/>
<path d="M132.138 34V20.9091H137.303C138.295 20.9091 139.141 21.0987 139.84 21.478C140.539 21.853 141.072 22.375 141.438 23.044C141.809 23.7088 141.994 24.4759 141.994 25.3452C141.994 26.2145 141.807 26.9815 141.432 27.6463C141.057 28.3111 140.513 28.8288 139.802 29.1996C139.094 29.5703 138.238 29.7557 137.232 29.7557H133.94V27.5376H136.785C137.317 27.5376 137.756 27.446 138.102 27.2628C138.451 27.0753 138.711 26.8175 138.881 26.4893C139.056 26.157 139.143 25.7756 139.143 25.3452C139.143 24.9105 139.056 24.5312 138.881 24.2074C138.711 23.8793 138.451 23.6257 138.102 23.4467C137.752 23.2635 137.309 23.1719 136.772 23.1719H134.906V34H132.138ZM143.741 34V24.1818H146.381V25.8949H146.483C146.662 25.2855 146.963 24.8253 147.384 24.5142C147.806 24.1989 148.292 24.0412 148.842 24.0412C148.978 24.0412 149.125 24.0497 149.283 24.0668C149.441 24.0838 149.579 24.1072 149.698 24.1371V26.5533C149.57 26.5149 149.394 26.4808 149.168 26.451C148.942 26.4212 148.735 26.4062 148.548 26.4062C148.147 26.4062 147.789 26.4936 147.474 26.6683C147.163 26.8388 146.916 27.0774 146.732 27.3842C146.553 27.6911 146.464 28.0447 146.464 28.4453V34H143.741ZM155.085 34.1918C154.092 34.1918 153.234 33.9808 152.509 33.5589C151.789 33.1328 151.233 32.5405 150.841 31.782C150.449 31.0192 150.253 30.1349 150.253 29.1293C150.253 28.1151 150.449 27.2287 150.841 26.4702C151.233 25.7074 151.789 25.1151 152.509 24.6932C153.234 24.267 154.092 24.054 155.085 24.054C156.078 24.054 156.935 24.267 157.655 24.6932C158.379 25.1151 158.938 25.7074 159.33 26.4702C159.722 27.2287 159.918 28.1151 159.918 29.1293C159.918 30.1349 159.722 31.0192 159.33 31.782C158.938 32.5405 158.379 33.1328 157.655 33.5589C156.935 33.9808 156.078 34.1918 155.085 34.1918ZM155.098 32.0824C155.55 32.0824 155.927 31.9545 156.229 31.6989C156.532 31.4389 156.76 31.0852 156.913 30.6378C157.071 30.1903 157.15 29.6811 157.15 29.1101C157.15 28.5391 157.071 28.0298 156.913 27.5824C156.76 27.1349 156.532 26.7812 156.229 26.5213C155.927 26.2614 155.55 26.1314 155.098 26.1314C154.642 26.1314 154.259 26.2614 153.947 26.5213C153.641 26.7812 153.408 27.1349 153.251 27.5824C153.097 28.0298 153.021 28.5391 153.021 29.1101C153.021 29.6811 153.097 30.1903 153.251 30.6378C153.408 31.0852 153.641 31.4389 153.947 31.6989C154.259 31.9545 154.642 32.0824 155.098 32.0824ZM165.306 34.1598C164.56 34.1598 163.885 33.968 163.28 33.5845C162.679 33.1967 162.202 32.6278 161.848 31.8778C161.499 31.1236 161.324 30.1989 161.324 29.1037C161.324 27.9787 161.505 27.0433 161.867 26.2976C162.229 25.5476 162.711 24.9872 163.312 24.6165C163.917 24.2415 164.58 24.054 165.3 24.054C165.849 24.054 166.308 24.1477 166.674 24.3352C167.045 24.5185 167.343 24.7486 167.569 25.0256C167.799 25.2983 167.974 25.5668 168.093 25.831H168.176V20.9091H170.893V34H168.208V32.4276H168.093C167.965 32.7003 167.784 32.9709 167.55 33.2393C167.32 33.5036 167.019 33.723 166.648 33.8977C166.282 34.0724 165.835 34.1598 165.306 34.1598ZM166.169 31.9929C166.608 31.9929 166.979 31.8736 167.281 31.6349C167.588 31.392 167.822 31.0533 167.984 30.6186C168.151 30.1839 168.234 29.6747 168.234 29.0909C168.234 28.5071 168.153 28 167.991 27.5696C167.829 27.1392 167.594 26.8068 167.288 26.5724C166.981 26.3381 166.608 26.2209 166.169 26.2209C165.722 26.2209 165.344 26.3423 165.038 26.5852C164.731 26.8281 164.499 27.1648 164.341 27.5952C164.183 28.0256 164.104 28.5241 164.104 29.0909C164.104 29.6619 164.183 30.1669 164.341 30.6058C164.503 31.0405 164.735 31.3814 165.038 31.6286C165.344 31.8714 165.722 31.9929 166.169 31.9929ZM179.428 29.8196V24.1818H182.151V34H179.536V32.2166H179.434C179.213 32.7919 178.844 33.2543 178.328 33.6037C177.817 33.9531 177.193 34.1278 176.455 34.1278C175.799 34.1278 175.222 33.9787 174.723 33.6804C174.225 33.3821 173.835 32.9581 173.553 32.4084C173.276 31.8587 173.136 31.2003 173.132 30.4332V24.1818H175.855V29.9474C175.859 30.527 176.014 30.9851 176.321 31.3217C176.628 31.6584 177.039 31.8267 177.555 31.8267C177.883 31.8267 178.19 31.7521 178.475 31.603C178.761 31.4496 178.991 31.2237 179.166 30.9254C179.345 30.6271 179.432 30.2585 179.428 29.8196ZM188.765 34.1918C187.759 34.1918 186.894 33.9787 186.17 33.5526C185.45 33.1222 184.896 32.5256 184.508 31.7628C184.124 31 183.933 30.1222 183.933 29.1293C183.933 28.1236 184.126 27.2415 184.514 26.483C184.906 25.7202 185.462 25.1257 186.183 24.6996C186.903 24.2692 187.759 24.054 188.752 24.054C189.609 24.054 190.359 24.2095 191.002 24.5206C191.646 24.8317 192.155 25.2685 192.53 25.831C192.905 26.3935 193.112 27.054 193.15 27.8125H190.58C190.508 27.3224 190.316 26.9283 190.005 26.63C189.698 26.3274 189.295 26.1761 188.797 26.1761C188.375 26.1761 188.006 26.2912 187.691 26.5213C187.38 26.7472 187.137 27.0774 186.962 27.5121C186.788 27.9467 186.7 28.473 186.7 29.0909C186.7 29.7173 186.786 30.25 186.956 30.6889C187.131 31.1278 187.376 31.4624 187.691 31.6925C188.006 31.9226 188.375 32.0376 188.797 32.0376C189.108 32.0376 189.387 31.9737 189.634 31.8459C189.886 31.718 190.092 31.5327 190.254 31.2898C190.42 31.0426 190.529 30.7464 190.58 30.4013H193.15C193.107 31.1513 192.903 31.8118 192.536 32.3828C192.174 32.9496 191.673 33.3928 191.034 33.7124C190.395 34.032 189.638 34.1918 188.765 34.1918ZM200.116 24.1818V26.2273H194.203V24.1818H200.116ZM195.545 21.8295H198.268V30.983C198.268 31.2344 198.307 31.4304 198.383 31.571C198.46 31.7074 198.567 31.8033 198.703 31.8587C198.844 31.9141 199.006 31.9418 199.189 31.9418C199.317 31.9418 199.444 31.9311 199.572 31.9098C199.7 31.8842 199.798 31.8651 199.866 31.8523L200.295 33.8786C200.158 33.9212 199.966 33.9702 199.719 34.0256C199.472 34.0852 199.172 34.1214 198.818 34.1342C198.162 34.1598 197.586 34.0724 197.092 33.8722C196.602 33.6719 196.221 33.3608 195.948 32.9389C195.675 32.517 195.541 31.9844 195.545 31.3409V21.8295ZM206.107 34V20.9091H208.874V26.3104H214.493V20.9091H217.254V34H214.493V28.5923H208.874V34H206.107ZM225.781 29.8196V24.1818H228.504V34H225.89V32.2166H225.788C225.566 32.7919 225.197 33.2543 224.682 33.6037C224.17 33.9531 223.546 34.1278 222.809 34.1278C222.153 34.1278 221.575 33.9787 221.077 33.6804C220.578 33.3821 220.188 32.9581 219.907 32.4084C219.63 31.8587 219.489 31.2003 219.485 30.4332V24.1818H222.208V29.9474C222.212 30.527 222.368 30.9851 222.675 31.3217C222.982 31.6584 223.393 31.8267 223.908 31.8267C224.237 31.8267 224.543 31.7521 224.829 31.603C225.114 31.4496 225.344 31.2237 225.519 30.9254C225.698 30.6271 225.786 30.2585 225.781 29.8196ZM230.733 34V20.9091H233.456V25.831H233.54C233.659 25.5668 233.831 25.2983 234.057 25.0256C234.287 24.7486 234.586 24.5185 234.952 24.3352C235.323 24.1477 235.783 24.054 236.333 24.054C237.049 24.054 237.709 24.2415 238.314 24.6165C238.92 24.9872 239.403 25.5476 239.765 26.2976C240.128 27.0433 240.309 27.9787 240.309 29.1037C240.309 30.1989 240.132 31.1236 239.778 31.8778C239.429 32.6278 238.952 33.1967 238.346 33.5845C237.746 33.968 237.072 34.1598 236.327 34.1598C235.798 34.1598 235.349 34.0724 234.978 33.8977C234.611 33.723 234.311 33.5036 234.077 33.2393C233.842 32.9709 233.663 32.7003 233.54 32.4276H233.418V34H230.733ZM233.399 29.0909C233.399 29.6747 233.48 30.1839 233.642 30.6186C233.804 31.0533 234.038 31.392 234.345 31.6349C234.652 31.8736 235.025 31.9929 235.464 31.9929C235.907 31.9929 236.282 31.8714 236.589 31.6286C236.895 31.3814 237.128 31.0405 237.285 30.6058C237.447 30.1669 237.528 29.6619 237.528 29.0909C237.528 28.5241 237.449 28.0256 237.292 27.5952C237.134 27.1648 236.902 26.8281 236.595 26.5852C236.288 26.3423 235.911 26.2209 235.464 26.2209C235.02 26.2209 234.645 26.3381 234.339 26.5724C234.036 26.8068 233.804 27.1392 233.642 27.5696C233.48 28 233.399 28.5071 233.399 29.0909Z" fill="#686565"/>
</svg>
