<svg xmlns="http://www.w3.org/2000/svg" width="91" height="32" fill="none" viewBox="0 0 91 32"><circle cx="14" cy="18" r="14" fill="#00A3FF" fill-opacity=".5"/><circle cx="14" cy="18" r="10" fill="#00A3FF"/><path fill="#fff" d="M9.4235 23V17.2475C9.4235 16.3635 9.6185 15.59 10.0085 14.927C10.4115 14.264 10.964 13.7505 11.666 13.3865C12.368 13.0095 13.1675 12.821 14.0645 12.821C14.9745 12.821 15.774 13.0095 16.463 13.3865C17.165 13.7505 17.711 14.264 18.101 14.927C18.504 15.59 18.7055 16.3635 18.7055 17.2475V23H16.9115V17.267C16.9115 16.669 16.775 16.1555 16.502 15.7265C16.242 15.2845 15.891 14.9465 15.449 14.7125C15.02 14.4785 14.5585 14.3615 14.0645 14.3615C13.5705 14.3615 13.1025 14.4785 12.6605 14.7125C12.2315 14.9465 11.8805 15.2845 11.6075 15.7265C11.3475 16.1555 11.2175 16.669 11.2175 17.267V23H9.4235Z"/><path fill="#00A3FF" d="M32.4235 22V16.0135C32.4235 15.2465 32.599 14.5445 32.95 13.9075C33.301 13.2705 33.808 12.7635 34.471 12.3865C35.134 12.0095 35.9335 11.821 36.8695 11.821C37.3245 11.821 37.7795 11.886 38.2345 12.016C38.6895 12.133 39.112 12.341 39.502 12.64C39.892 12.926 40.204 13.316 40.438 13.81H40.4575C40.7175 13.316 41.0425 12.926 41.4325 12.64C41.8225 12.341 42.245 12.133 42.7 12.016C43.155 11.886 43.6165 11.821 44.0845 11.821C45.0075 11.821 45.8005 12.0095 46.4635 12.3865C47.1265 12.7635 47.6335 13.2705 47.9845 13.9075C48.3355 14.5445 48.511 15.2465 48.511 16.0135V22H46.717V16.0135C46.717 15.5195 46.6 15.071 46.366 14.668C46.132 14.265 45.8135 13.9465 45.4105 13.7125C45.0205 13.4785 44.572 13.3615 44.065 13.3615C43.571 13.3615 43.116 13.485 42.7 13.732C42.284 13.966 41.9525 14.2845 41.7055 14.6875C41.4715 15.0775 41.3545 15.5195 41.3545 16.0135V22H39.5605V16.0135C39.5605 15.5195 39.437 15.0775 39.19 14.6875C38.956 14.2845 38.631 13.966 38.215 13.732C37.812 13.485 37.357 13.3615 36.85 13.3615C36.356 13.3615 35.9075 13.4785 35.5045 13.7125C35.1145 13.9465 34.8025 14.265 34.5685 14.668C34.3345 15.071 34.2175 15.5195 34.2175 16.0135V22H32.4235ZM56.4027 22C55.3107 22 54.3422 21.7985 53.4972 21.3955C52.6522 20.9795 51.9892 20.401 51.5082 19.66C51.0402 18.906 50.8062 18.0285 50.8062 17.0275C50.8062 16.0395 51.0077 15.1555 51.4107 14.3755C51.8137 13.5825 52.3727 12.9585 53.0877 12.5035C53.8027 12.0485 54.6347 11.821 55.5837 11.821C56.6107 11.821 57.4622 12.042 58.1382 12.484C58.8272 12.926 59.3407 13.524 59.6787 14.278C60.0167 15.019 60.1857 15.851 60.1857 16.774C60.1857 16.917 60.1792 17.0665 60.1662 17.2225C60.1662 17.3785 60.1532 17.515 60.1272 17.632H52.7172C52.7822 18.243 52.9837 18.763 53.3217 19.192C53.6597 19.608 54.0887 19.9265 54.6087 20.1475C55.1417 20.3555 55.7267 20.4595 56.3637 20.4595H58.9572V22H56.4027ZM52.6977 16.3645H58.3722C58.3722 16.1175 58.3462 15.8575 58.2942 15.5845C58.2422 15.2985 58.1512 15.0255 58.0212 14.7655C57.8912 14.4925 57.7157 14.252 57.4947 14.044C57.2867 13.823 57.0202 13.6475 56.6952 13.5175C56.3832 13.3875 56.0127 13.3225 55.5837 13.3225C55.1287 13.3225 54.7257 13.4135 54.3747 13.5955C54.0367 13.7645 53.7442 13.9985 53.4972 14.2975C53.2502 14.5835 53.0617 14.9085 52.9317 15.2725C52.8017 15.6365 52.7237 16.0005 52.6977 16.3645ZM67.5238 22C66.4318 22 65.4633 21.7985 64.6183 21.3955C63.7733 20.9795 63.1103 20.401 62.6293 19.66C62.1613 18.906 61.9273 18.0285 61.9273 17.0275C61.9273 16.0395 62.1288 15.1555 62.5318 14.3755C62.9348 13.5825 63.4938 12.9585 64.2088 12.5035C64.9238 12.0485 65.7558 11.821 66.7048 11.821C67.7318 11.821 68.5833 12.042 69.2593 12.484C69.9483 12.926 70.4618 13.524 70.7998 14.278C71.1378 15.019 71.3068 15.851 71.3068 16.774C71.3068 16.917 71.3003 17.0665 71.2873 17.2225C71.2873 17.3785 71.2743 17.515 71.2483 17.632H63.8383C63.9033 18.243 64.1048 18.763 64.4428 19.192C64.7808 19.608 65.2098 19.9265 65.7298 20.1475C66.2628 20.3555 66.8478 20.4595 67.4848 20.4595H70.0783V22H67.5238ZM63.8188 16.3645H69.4933C69.4933 16.1175 69.4673 15.8575 69.4153 15.5845C69.3633 15.2985 69.2723 15.0255 69.1423 14.7655C69.0123 14.4925 68.8368 14.252 68.6158 14.044C68.4078 13.823 68.1413 13.6475 67.8163 13.5175C67.5043 13.3875 67.1338 13.3225 66.7048 13.3225C66.2498 13.3225 65.8468 13.4135 65.4958 13.5955C65.1578 13.7645 64.8653 13.9985 64.6183 14.2975C64.3713 14.5835 64.1828 14.9085 64.0528 15.2725C63.9228 15.6365 63.8448 16.0005 63.8188 16.3645ZM76.9874 22C76.1034 22 75.4079 21.7465 74.9009 21.2395C74.4069 20.7325 74.1599 20.0435 74.1599 19.1725V9.559H75.9539V19.0555C75.9539 19.4845 76.0709 19.829 76.3049 20.089C76.5519 20.336 76.8899 20.4595 77.3189 20.4595H79.3274V22H76.9874ZM72.4439 13.5955V12.055H79.3664V13.5955H72.4439ZM81.3988 22V20.4595H86.1568C86.4688 20.4595 86.7353 20.3945 86.9563 20.2645C87.1903 20.1215 87.3658 19.9395 87.4828 19.7185C87.5998 19.4975 87.6583 19.2635 87.6583 19.0165C87.6583 18.7825 87.6063 18.568 87.5023 18.373C87.3983 18.165 87.2358 18.0025 87.0148 17.8855C86.8068 17.7555 86.5533 17.6905 86.2543 17.6905H84.2458C83.6088 17.6905 83.0498 17.5865 82.5688 17.3785C82.1008 17.1575 81.7303 16.839 81.4573 16.423C81.1973 16.007 81.0673 15.5 81.0673 14.902C81.0673 14.395 81.1908 13.927 81.4378 13.498C81.6848 13.069 82.0293 12.7245 82.4713 12.4645C82.9133 12.1915 83.4203 12.055 83.9923 12.055H88.5748V13.5955H84.1678C83.7648 13.5955 83.4463 13.719 83.2123 13.966C82.9783 14.213 82.8613 14.5055 82.8613 14.8435C82.8613 15.1685 82.9783 15.4545 83.2123 15.7015C83.4593 15.9355 83.8038 16.0525 84.2458 16.0525H86.1568C86.8718 16.0525 87.4698 16.1695 87.9508 16.4035C88.4448 16.6245 88.8153 16.9495 89.0623 17.3785C89.3223 17.8075 89.4523 18.334 89.4523 18.958C89.4523 19.491 89.3223 19.9915 89.0623 20.4595C88.8023 20.9145 88.4383 21.285 87.9703 21.571C87.5153 21.857 86.9823 22 86.3713 22H81.3988Z"/></svg>